<svg xmlns="http://www.w3.org/2000/svg" width="1200" height="800" viewBox="0 0 1200 800" role="img" aria-label="Art & Culture">
  <defs>
    <linearGradient id="g" x1="0" y1="0" x2="1" y2="1">
      <stop offset="0" stop-color="#6d28d9"/>
      <stop offset="1" stop-color="#a78bfa"/>
    </linearGradient>
    <radialGradient id="glow" cx="0.5" cy="0.42" r="0.6">
      <stop offset="0" stop-color="#ffffff" stop-opacity="0.18"/>
      <stop offset="1" stop-color="#ffffff" stop-opacity="0"/>
    </radialGradient>
  </defs>
  <rect width="1200" height="800" fill="url(#g)"/>
  <rect width="1200" height="800" fill="url(#glow)"/>
  <g opacity="0.10" stroke="#ffffff" stroke-width="2">
    <circle cx="120" cy="160" r="40" fill="none"/><circle cx="250" cy="640" r="62" fill="none"/><circle cx="380" cy="160" r="84" fill="none"/><circle cx="510" cy="640" r="40" fill="none"/><circle cx="640" cy="160" r="62" fill="none"/><circle cx="770" cy="640" r="84" fill="none"/><circle cx="900" cy="160" r="40" fill="none"/><circle cx="1030" cy="640" r="62" fill="none"/><circle cx="1160" cy="160" r="84" fill="none"/>
  </g>
  <path d="M5 21V10l7-5 7 5v11" transform="translate(525 250) scale(6)" fill="none" stroke="#ddd6fe" stroke-width="0.9" stroke-linecap="round" stroke-linejoin="round" opacity="0.95"/><path d="M3 21h18" transform="translate(525 250) scale(6)" fill="none" stroke="#ddd6fe" stroke-width="0.9" stroke-linecap="round" stroke-linejoin="round" opacity="0.95"/><path d="M9 21v-6h6v6" transform="translate(525 250) scale(6)" fill="none" stroke="#ddd6fe" stroke-width="0.9" stroke-linecap="round" stroke-linejoin="round" opacity="0.95"/><path d="M12 5v0" transform="translate(525 250) scale(6)" fill="none" stroke="#ddd6fe" stroke-width="0.9" stroke-linecap="round" stroke-linejoin="round" opacity="0.95"/>
  <text x="600" y="640" text-anchor="middle" font-family="'IBM Plex Sans','Segoe UI',sans-serif" font-size="62" font-weight="700" fill="#ffffff" letter-spacing="0.5">Art & Culture</text>
  <text x="600" y="694" text-anchor="middle" font-family="'IBM Plex Sans','Segoe UI',sans-serif" font-size="30" font-weight="400" fill="#ffffff" opacity="0.8">Phitsanulok City Tour</text>
</svg>